<?xml version="1.0" encoding="UTF-8" standalone="no"?>
<svg
   xmlns:dc="http://purl.org/dc/elements/1.1/"
   xmlns:cc="http://creativecommons.org/ns#"
   xmlns:rdf="http://www.w3.org/1999/02/22-rdf-syntax-ns#"
   xmlns:svg="http://www.w3.org/2000/svg"
   xmlns="http://www.w3.org/2000/svg"
   xmlns:sodipodi="http://sodipodi.sourceforge.net/DTD/sodipodi-0.dtd"
   xmlns:inkscape="http://www.inkscape.org/namespaces/inkscape"
   version="1.1"
   x="0"
   y="0"
   width="682.70728"
   height="997.04675"
   id="svg2"
   inkscape:version="0.91 r13725"
   sodipodi:docname="dice-logo-path.svg">
  <metadata
     id="metadata4235">
    <rdf:RDF>
      <cc:Work
         rdf:about="">
        <dc:format>image/svg+xml</dc:format>
        <dc:type
           rdf:resource="http://purl.org/dc/dcmitype/StillImage" />
        <dc:title></dc:title>
      </cc:Work>
    </rdf:RDF>
  </metadata>
  <sodipodi:namedview
     pagecolor="#ffffff"
     bordercolor="#666666"
     borderopacity="1"
     objecttolerance="10"
     gridtolerance="10"
     guidetolerance="10"
     inkscape:pageopacity="0"
     inkscape:pageshadow="2"
     inkscape:window-width="1920"
     inkscape:window-height="1027"
     id="namedview4233"
     showgrid="false"
     inkscape:zoom="0.23046875"
     inkscape:cx="387.89956"
     inkscape:cy="494.62281"
     inkscape:window-x="-8"
     inkscape:window-y="-8"
     inkscape:window-maximized="1"
     inkscape:current-layer="svg2"
     fit-margin-top="0"
     fit-margin-left="0"
     fit-margin-right="0"
     fit-margin-bottom="0" />
  <defs
     id="defs4" />
  <g
     transform="matrix(0,1.5,-1.5,0,1152.2073,-241.00387)"
     id="g3674"
     style="stroke:#000000;stroke-opacity:1">
    <path
       d="M 245,341.5 C 252.5,329 270,314 282.5,314 l 275,155 c 5,5 17.5,37.5 7.5,50 L 292.5,679 c -7.5,2.5 -40,0 -50,-25 L 245,341.5 Z"
       id="path3586"
       style="fill:#404040;fill-opacity:1;fill-rule:evenodd;stroke:#000000;stroke-width:2;stroke-linecap:round;stroke-linejoin:round;stroke-miterlimit:4;stroke-dasharray:none;stroke-opacity:1"
       inkscape:connector-curvature="0" />
    <g
       transform="matrix(0.1910977,-0.3317217,0.1910977,0.3317217,152.64427,500.07482)"
       id="g3515"
       style="overflow:visible;stroke:#000000;stroke-opacity:1">
      <path
         d="M 71.459473,553.5 C 34.080566,553.5 3.5,522.91895 3.5,485.54004 L 3.5,71.459473 C 3.5,34.082031 34.080566,3.5 71.459473,3.5 l 414.080567,0 C 522.91797,3.5 553.5,34.082031 553.5,71.459473 l 0,414.080567 C 553.5,522.91895 522.91797,553.5 485.54004,553.5 l -414.080567,0 z"
         id="path3491"
         style="fill:#ffffff;fill-opacity:1;stroke:#000000;stroke-width:7;stroke-opacity:1"
         inkscape:connector-curvature="0" />
      <path
         style="fill:#404040;fill-opacity:1;stroke:#000000;stroke-width:5;stroke-opacity:1"
         d="M 335.61523,278.5 A 57.115234,57.115234 0 0 1 278.5,335.61523 57.115234,57.115234 0 0 1 221.38477,278.5 57.115234,57.115234 0 0 1 278.5,221.38477 57.115234,57.115234 0 0 1 335.61523,278.5 Z"
         id="circle3493" />
    </g>
    <g
       transform="matrix(-0.3828283,3.653872e-4,0.1917306,-0.3313563,472.998,680.25529)"
       id="g3558"
       style="overflow:visible;stroke:#000000;stroke-opacity:1">
      <path
         d="M 71.459473,553.5 C 34.080566,553.5 3.5,522.91895 3.5,485.54004 L 3.5,71.459473 C 3.5,34.082031 34.080566,3.5 71.459473,3.5 l 414.080567,0 C 522.91797,3.5 553.5,34.082031 553.5,71.459473 l 0,414.080567 C 553.5,522.91895 522.91797,553.5 485.54004,553.5 l -414.080567,0 z"
         id="path3566"
         style="fill:#ffffff;fill-opacity:1;stroke:#000000;stroke-width:7;stroke-opacity:1"
         inkscape:connector-curvature="0" />
      <path
         style="fill:#404040;fill-opacity:1;stroke:#000000;stroke-width:5;stroke-opacity:1"
         d="m 174.1416,439.97461 a 57.115234,57.115234 0 0 1 -57.11523,57.11523 57.115234,57.115234 0 0 1 -57.115237,-57.11523 57.115234,57.115234 0 0 1 57.115237,-57.11524 57.115234,57.115234 0 0 1 57.11523,57.11524 z"
         id="circle3560" />
      <path
         style="fill:#404040;fill-opacity:1;stroke:#000000;stroke-width:5;stroke-opacity:1"
         d="m 497.08984,439.97461 a 57.115234,57.115234 0 0 1 -57.11523,57.11523 57.115234,57.115234 0 0 1 -57.11524,-57.11523 57.115234,57.115234 0 0 1 57.11524,-57.11524 57.115234,57.115234 0 0 1 57.11523,57.11524 z"
         id="circle3562" />
      <path
         style="fill:#404040;fill-opacity:1;stroke:#000000;stroke-width:5;stroke-opacity:1"
         d="m 497.08789,117.02588 a 57.114746,57.114746 0 0 1 -57.11475,57.11474 57.114746,57.114746 0 0 1 -57.11474,-57.11474 57.114746,57.114746 0 0 1 57.11474,-57.114747 57.114746,57.114746 0 0 1 57.11475,57.114747 z"
         id="circle3564" />
      <path
         style="fill:#404040;fill-opacity:1;stroke:#000000;stroke-width:5;stroke-opacity:1"
         d="M 335.61523,278.5 A 57.115234,57.115234 0 0 1 278.5,335.61523 57.115234,57.115234 0 0 1 221.38477,278.5 57.115234,57.115234 0 0 1 278.5,221.38477 57.115234,57.115234 0 0 1 335.61523,278.5 Z"
         id="circle3568" />
      <path
         style="fill:#404040;fill-opacity:1;stroke:#000000;stroke-width:5;stroke-opacity:1"
         d="M 174.14136,117.02563 A 57.115479,57.115479 0 0 1 117.02588,174.14111 57.115479,57.115479 0 0 1 59.9104,117.02563 57.115479,57.115479 0 0 1 117.02588,59.910149 57.115479,57.115479 0 0 1 174.14136,117.02563 Z"
         id="circle3570" />
    </g>
    <g
       transform="matrix(0.1917306,0.3313563,-0.3828283,-3.653872e-4,468.80258,313.31549)"
       id="g3572"
       style="overflow:visible;stroke:#000000;stroke-opacity:1">
      <path
         d="M 71.459473,553.5 C 34.080566,553.5 3.5,522.91895 3.5,485.54004 L 3.5,71.459473 C 3.5,34.082031 34.080566,3.5 71.459473,3.5 l 414.080567,0 C 522.91797,3.5 553.5,34.082031 553.5,71.459473 l 0,414.080567 C 553.5,522.91895 522.91797,553.5 485.54004,553.5 l -414.080567,0 z"
         id="path3580"
         style="fill:#ffffff;fill-opacity:1;stroke:#000000;stroke-width:7;stroke-opacity:1"
         inkscape:connector-curvature="0" />
      <path
         style="fill:#404040;fill-opacity:1;stroke:#000000;stroke-width:5;stroke-opacity:1"
         d="m 174.1416,439.97461 a 57.115234,57.115234 0 0 1 -57.11523,57.11523 57.115234,57.115234 0 0 1 -57.115237,-57.11523 57.115234,57.115234 0 0 1 57.115237,-57.11524 57.115234,57.115234 0 0 1 57.11523,57.11524 z"
         id="circle3574" />
      <path
         style="fill:#404040;fill-opacity:1;stroke:#000000;stroke-width:5;stroke-opacity:1"
         d="m 497.08984,439.97461 a 57.115234,57.115234 0 0 1 -57.11523,57.11523 57.115234,57.115234 0 0 1 -57.11524,-57.11523 57.115234,57.115234 0 0 1 57.11524,-57.11524 57.115234,57.115234 0 0 1 57.11523,57.11524 z"
         id="circle3576" />
      <path
         style="fill:#404040;fill-opacity:1;stroke:#000000;stroke-width:5;stroke-opacity:1"
         d="m 497.08789,117.02588 a 57.114746,57.114746 0 0 1 -57.11475,57.11474 57.114746,57.114746 0 0 1 -57.11474,-57.11474 57.114746,57.114746 0 0 1 57.11474,-57.114747 57.114746,57.114746 0 0 1 57.11475,57.114747 z"
         id="circle3578" />
      <path
         style="fill:#404040;fill-opacity:1;stroke:#000000;stroke-width:5;stroke-opacity:1"
         d="M 174.14136,117.02563 A 57.115479,57.115479 0 0 1 117.02588,174.14111 57.115479,57.115479 0 0 1 59.9104,117.02563 57.115479,57.115479 0 0 1 117.02588,59.910149 57.115479,57.115479 0 0 1 174.14136,117.02563 Z"
         id="circle3584" />
    </g>
  </g>
  <g
     transform="matrix(1.5,0,0,1.5,-919.84803,345.67939)"
     id="g3658"
     style="stroke:#000000;stroke-opacity:1">
    <g
       transform="matrix(0,1,-1,0,1481.1182,-519.93236)"
       id="g3634"
       style="stroke:#000000;stroke-opacity:1">
      <path
         d="m 628.93236,528.61822 c 7.5,-12.5 25,-27.5 37.5,-27.5 l 278.6825,160.82693 c 4.11647,6.65796 12.40666,21.07873 5.29642,41.57018 L 676.43236,866.11822 c -7.5,2.5 -40,0 -50,-25 l 2.5,-312.5 z"
         id="path3590"
         style="fill:#404040;fill-opacity:1;fill-rule:evenodd;stroke:#000000;stroke-width:2;stroke-linecap:round;stroke-linejoin:round;stroke-miterlimit:4;stroke-dasharray:none;stroke-opacity:1"
         inkscape:connector-curvature="0" />
      <g
         transform="matrix(0.1910977,-0.3317217,0.1910977,0.3317217,536.57663,687.19304)"
         id="g3592"
         style="overflow:visible;stroke:#000000;stroke-opacity:1">
        <path
           d="M 71.459473,553.5 C 34.080566,553.5 3.5,522.91895 3.5,485.54004 L 3.5,71.459473 C 3.5,34.082031 34.080566,3.5 71.459473,3.5 l 414.080567,0 C 522.91797,3.5 553.5,34.082031 553.5,71.459473 l 0,414.080567 C 553.5,522.91895 522.91797,553.5 485.54004,553.5 l -414.080567,0 z"
           id="path3594"
           style="fill:#ffffff;fill-opacity:1;stroke:#000000;stroke-width:7;stroke-opacity:1"
           inkscape:connector-curvature="0" />
        <path
           style="fill:#404040;fill-opacity:1;stroke:#000000;stroke-width:5;stroke-opacity:1"
           d="M 335.61523,278.5 A 57.115234,57.115234 0 0 1 278.5,335.61523 57.115234,57.115234 0 0 1 221.38477,278.5 57.115234,57.115234 0 0 1 278.5,221.38477 57.115234,57.115234 0 0 1 335.61523,278.5 Z"
           id="circle3602" />
      </g>
      <g
         transform="matrix(-0.3828283,3.653872e-4,0.1917306,-0.3313563,856.93036,867.37351)"
         id="g3606"
         style="overflow:visible;stroke:#000000;stroke-opacity:1">
        <path
           d="M 71.459473,553.5 C 34.080566,553.5 3.5,522.91895 3.5,485.54004 L 3.5,71.459473 C 3.5,34.082031 34.080566,3.5 71.459473,3.5 l 414.080567,0 C 522.91797,3.5 553.5,34.082031 553.5,71.459473 l 0,414.080567 C 553.5,522.91895 522.91797,553.5 485.54004,553.5 l -414.080567,0 z"
           id="path3608"
           style="fill:#ffffff;fill-opacity:1;stroke:#000000;stroke-width:7;stroke-opacity:1"
           inkscape:connector-curvature="0" />
        <path
           style="fill:#404040;fill-opacity:1;stroke:#000000;stroke-width:5;stroke-opacity:1"
           d="m 174.1416,439.97461 a 57.115234,57.115234 0 0 1 -57.11523,57.11523 57.115234,57.115234 0 0 1 -57.115237,-57.11523 57.115234,57.115234 0 0 1 57.115237,-57.11524 57.115234,57.115234 0 0 1 57.11523,57.11524 z"
           id="circle3610" />
        <path
           style="fill:#404040;fill-opacity:1;stroke:#000000;stroke-width:5;stroke-opacity:1"
           d="m 497.08789,117.02588 a 57.114746,57.114746 0 0 1 -57.11475,57.11474 57.114746,57.114746 0 0 1 -57.11474,-57.11474 57.114746,57.114746 0 0 1 57.11474,-57.114747 57.114746,57.114746 0 0 1 57.11475,57.114747 z"
           id="circle3614" />
      </g>
      <g
         transform="matrix(0.1917306,0.3313563,-0.3828283,-3.653872e-4,852.73494,500.43371)"
         id="g3620"
         style="overflow:visible;stroke:#000000;stroke-opacity:1">
        <path
           d="M 71.459473,553.5 C 34.080566,553.5 3.5,522.91895 3.5,485.54004 L 3.5,71.459473 C 3.5,34.082031 34.080566,3.5 71.459473,3.5 l 414.080567,0 C 522.91797,3.5 553.5,34.082031 553.5,71.459473 l 0,414.080567 C 553.5,522.91895 522.91797,553.5 485.54004,553.5 l -414.080567,0 z"
           id="path3622"
           style="fill:#ffffff;fill-opacity:1;stroke:#000000;stroke-width:7;stroke-opacity:1"
           inkscape:connector-curvature="0" />
        <path
           style="fill:#404040;fill-opacity:1;stroke:#000000;stroke-width:5;stroke-opacity:1"
           d="m 174.1416,439.97461 a 57.115234,57.115234 0 0 1 -57.11523,57.11523 57.115234,57.115234 0 0 1 -57.115237,-57.11523 57.115234,57.115234 0 0 1 57.115237,-57.11524 57.115234,57.115234 0 0 1 57.11523,57.11524 z"
           id="circle3624" />
        <path
           style="fill:#404040;fill-opacity:1;stroke:#000000;stroke-width:5;stroke-opacity:1"
           d="m 497.08789,117.02588 a 57.114746,57.114746 0 0 1 -57.11475,57.11474 57.114746,57.114746 0 0 1 -57.11474,-57.11474 57.114746,57.114746 0 0 1 57.11474,-57.114747 57.114746,57.114746 0 0 1 57.11475,57.114747 z"
           id="circle3628" />
        <path
           style="fill:#404040;fill-opacity:1;stroke:#000000;stroke-width:5;stroke-opacity:1"
           d="M 335.61523,278.5 A 57.115234,57.115234 0 0 1 278.5,335.61523 57.115234,57.115234 0 0 1 221.38477,278.5 57.115234,57.115234 0 0 1 278.5,221.38477 57.115234,57.115234 0 0 1 335.61523,278.5 Z"
           id="circle3630" />
      </g>
    </g>
  </g>
</svg>
