<?xml version="1.0" encoding="UTF-8" standalone="no"?>
<!-- Generated by IcoMoon.io -->

<svg
   xmlns:dc="http://purl.org/dc/elements/1.1/"
   xmlns:cc="http://creativecommons.org/ns#"
   xmlns:rdf="http://www.w3.org/1999/02/22-rdf-syntax-ns#"
   xmlns:svg="http://www.w3.org/2000/svg"
   xmlns="http://www.w3.org/2000/svg"
   xmlns:sodipodi="http://sodipodi.sourceforge.net/DTD/sodipodi-0.dtd"
   xmlns:inkscape="http://www.inkscape.org/namespaces/inkscape"
   version="1.1"
   width="22"
   height="32"
   viewBox="0 0 22 32"
   id="svg2"
   inkscape:version="0.91 r13725"
   sodipodi:docname="dice-logo-path2.svg">
  <metadata
     id="metadata56">
    <rdf:RDF>
      <cc:Work
         rdf:about="">
        <dc:format>image/svg+xml</dc:format>
        <dc:type
           rdf:resource="http://purl.org/dc/dcmitype/StillImage" />
        <dc:title></dc:title>
      </cc:Work>
    </rdf:RDF>
  </metadata>
  <defs
     id="defs54" />
  <sodipodi:namedview
     pagecolor="#ffffff"
     bordercolor="#666666"
     borderopacity="1"
     objecttolerance="10"
     gridtolerance="10"
     guidetolerance="10"
     inkscape:pageopacity="0"
     inkscape:pageshadow="2"
     inkscape:window-width="1052"
     inkscape:window-height="607"
     id="namedview52"
     showgrid="false"
     inkscape:zoom="7.375"
     inkscape:cx="11"
     inkscape:cy="16"
     inkscape:window-x="0"
     inkscape:window-y="0"
     inkscape:window-maximized="0"
     inkscape:current-layer="svg2" />
  <path
     fill="rgb(64, 64, 64)"
     d="M20.539 4.060c0.602 0.361 1.324 1.204 1.324 1.805l-7.462 13.239c-0.241 0.241-1.805 0.843-2.407 0.361l-7.703-13.119c-0.12-0.361 0-1.926 1.204-2.407l15.044 0.12z"
     id="path4" />
  <path
     fill="rgb(255, 255, 255)"
     d="M5.207 5.363c-0.597-0.344-0.597-0.907 0-1.25l6.613-3.809c0.597-0.344 1.574-0.344 2.171 0l6.613 3.809c0.597 0.344 0.597 0.907 0 1.25l-6.613 3.809c-0.597 0.344-1.574 0.344-2.171 0l-6.613-3.809z"
     id="path6" />
  <path
     fill="rgb(64, 64, 64)"
     d="M13.817 5.263c-0.504 0.29-1.32 0.29-1.824 0s-0.504-0.761 0-1.051c0.504-0.29 1.32-0.29 1.824 0s0.504 0.761 0 1.051z"
     id="path8" />
  <path
     fill="rgb(255, 255, 255)"
     d="M13.059 18.828c0.001 0.689-0.487 0.97-1.083 0.625l-6.606-3.822c-0.596-0.345-1.085-1.191-1.085-1.88l-0.007-7.632c-0.001-0.689 0.487-0.97 1.083-0.625l6.606 3.822c0.596 0.345 1.085 1.191 1.085 1.88l0.007 7.632z"
     id="path10" />
  <path
     fill="rgb(64, 64, 64)"
     d="M11.246 15.888c0.503 0.291 0.912 0.998 0.912 1.58 0 0 0 0 0 0 0.001 0.581-0.407 0.817-0.91 0.525 0 0 0 0 0 0-0.503-0.291-0.912-0.998-0.912-1.58 0 0 0 0 0 0-0.001-0.581 0.407-0.817 0.91-0.525 0 0 0 0 0 0z"
     id="path12" />
  <path
     fill="rgb(64, 64, 64)"
     d="M11.241 9.936c0.503 0.291 0.912 0.998 0.912 1.58 0 0 0 0 0 0 0.001 0.581-0.407 0.817-0.91 0.525 0 0 0 0 0 0-0.503-0.291-0.912-0.998-0.912-1.58 0 0 0 0 0 0-0.001-0.581 0.407-0.817 0.91-0.525 0 0 0 0 0 0z"
     id="path14" />
  <path
     fill="rgb(64, 64, 64)"
     d="M6.089 6.955c0.503 0.291 0.912 0.998 0.912 1.58 0 0 0 0 0 0 0.001 0.581-0.407 0.817-0.91 0.525 0 0 0 0 0 0-0.503-0.291-0.912-0.998-0.912-1.58 0 0 0 0 0 0-0.001-0.581 0.407-0.817 0.91-0.525 0 0 0 0 0 0z"
     id="path16" />
  <path
     fill="rgb(64, 64, 64)"
     d="M8.668 11.421c0.503 0.291 0.912 0.998 0.912 1.58s-0.407 0.817-0.91 0.525c-0.503-0.291-0.912-0.998-0.912-1.58s0.407-0.817 0.91-0.525z"
     id="path18" />
  <path
     fill="rgb(64, 64, 64)"
     d="M6.095 12.907c0 0 0 0 0 0 0.503 0.291 0.912 0.998 0.912 1.58 0 0 0 0 0 0s0 0 0 0c0.001 0.581-0.407 0.817-0.91 0.525 0 0 0 0 0 0s0 0 0 0c-0.503-0.291-0.912-0.998-0.912-1.58 0 0 0 0 0 0s0 0 0 0c-0.001-0.581 0.407-0.817 0.91-0.525 0 0 0 0 0 0z"
     id="path20" />
  <path
     fill="rgb(255, 255, 255)"
     d="M20.766 5.293c0.596-0.345 1.084-0.064 1.083 0.625l-0.007 7.632c-0.001 0.689-0.489 1.535-1.085 1.88l-6.605 3.822c-0.596 0.345-1.084 0.064-1.083-0.625l0.007-7.632c0.001-0.689 0.489-1.535 1.085-1.88l6.606-3.822z"
     id="path22" />
  <path
     fill="rgb(64, 64, 64)"
     d="M19.126 8.333c0.001-0.581 0.409-1.289 0.912-1.58 0 0 0 0 0 0 0.503-0.291 0.911-0.056 0.91 0.525 0 0 0 0 0 0-0.001 0.581-0.409 1.289-0.912 1.58 0 0 0 0 0 0-0.503 0.291-0.911 0.056-0.91-0.525 0 0 0 0 0 0z"
     id="path24" />
  <path
     fill="rgb(64, 64, 64)"
     d="M13.974 11.314c0.001-0.581 0.409-1.289 0.912-1.58 0 0 0 0 0 0 0.503-0.291 0.911-0.056 0.91 0.525 0 0 0 0 0 0-0.001 0.581-0.409 1.289-0.912 1.58 0 0 0 0 0 0-0.503 0.291-0.911 0.056-0.91-0.525 0 0 0 0 0 0z"
     id="path26" />
  <path
     fill="rgb(64, 64, 64)"
     d="M13.969 17.266c0.001-0.581 0.409-1.289 0.912-1.58 0 0 0 0 0 0 0.503-0.291 0.911-0.056 0.91 0.525 0 0 0 0 0 0-0.001 0.581-0.409 1.289-0.912 1.58 0 0 0 0 0 0-0.503 0.291-0.911 0.056-0.91-0.525 0 0 0 0 0 0z"
     id="path28" />
  <path
     fill="rgb(64, 64, 64)"
     d="M19.12 14.285c0 0 0 0 0 0 0.001-0.581 0.409-1.289 0.912-1.58 0 0 0 0 0 0s0 0 0 0c0.503-0.291 0.911-0.056 0.91 0.525 0 0 0 0 0 0s0 0 0 0c-0.001 0.581-0.409 1.289-0.912 1.58 0 0 0 0 0 0s0 0 0 0c-0.503 0.291-0.911 0.056-0.91-0.525 0 0 0 0 0 0z"
     id="path30" />
  <path
     fill="rgb(64, 64, 64)"
     d="M16.333 16.342c0.602 0.361 1.324 1.204 1.324 1.805l-7.743 13.416c-0.321 0.198-1.015 0.597-2.001 0.255l-7.828-13.19c-0.12-0.361 0-1.926 1.204-2.407l15.044 0.12z"
     id="path32" />
  <path
     fill="rgb(255, 255, 255)"
     d="M1.001 17.645c-0.597-0.344-0.597-0.907 0-1.25l6.613-3.809c0.597-0.344 1.574-0.344 2.171 0l6.613 3.809c0.597 0.344 0.597 0.907 0 1.25l-6.613 3.809c-0.597 0.344-1.574 0.344-2.171 0l-6.613-3.809z"
     id="path34" />
  <path
     fill="rgb(64, 64, 64)"
     d="M9.611 17.546c-0.504 0.29-1.321 0.29-1.824 0s-0.504-0.761 0-1.051c0.504-0.29 1.321-0.29 1.824 0s0.504 0.761 0 1.051z"
     id="path36" />
  <path
     fill="rgb(255, 255, 255)"
     d="M8.853 31.11c0.001 0.689-0.487 0.97-1.083 0.625l-6.606-3.822c-0.596-0.345-1.085-1.191-1.085-1.88l-0.007-7.632c-0.001-0.689 0.487-0.97 1.083-0.625l6.606 3.822c0.596 0.345 1.085 1.191 1.085 1.88l0.007 7.632z"
     id="path38" />
  <path
     fill="rgb(64, 64, 64)"
     d="M7.040 28.17c0.503 0.291 0.912 0.998 0.912 1.58 0 0 0 0 0 0 0.001 0.581-0.407 0.817-0.91 0.525 0 0 0 0 0 0-0.503-0.291-0.912-0.998-0.912-1.58 0 0 0 0 0 0-0.001-0.581 0.407-0.817 0.91-0.525 0 0 0 0 0 0z"
     id="path40" />
  <path
     fill="rgb(64, 64, 64)"
     d="M1.883 19.237c0.503 0.291 0.912 0.998 0.912 1.58 0 0 0 0 0 0 0.001 0.581-0.407 0.817-0.91 0.525 0 0 0 0 0 0-0.503-0.291-0.912-0.998-0.912-1.58 0 0 0 0 0 0-0.001-0.581 0.407-0.817 0.91-0.525 0 0 0 0 0 0z"
     id="path42" />
  <path
     fill="rgb(255, 255, 255)"
     d="M16.56 17.575c0.596-0.345 1.084-0.064 1.083 0.625l-0.007 7.632c-0.001 0.689-0.489 1.535-1.085 1.88l-6.605 3.822c-0.596 0.345-1.084 0.064-1.083-0.625l0.007-7.632c0.001-0.689 0.489-1.535 1.085-1.88l6.606-3.822z"
     id="path44" />
  <path
     fill="rgb(64, 64, 64)"
     d="M14.92 20.615c0.001-0.581 0.409-1.289 0.912-1.58 0 0 0 0 0 0 0.503-0.291 0.911-0.056 0.91 0.525 0 0 0 0 0 0-0.001 0.581-0.409 1.289-0.912 1.58 0 0 0 0 0 0-0.503 0.291-0.911 0.056-0.91-0.525 0 0 0 0 0 0z"
     id="path46" />
  <path
     fill="rgb(64, 64, 64)"
     d="M9.762 29.548c0.001-0.581 0.409-1.289 0.912-1.58 0 0 0 0 0 0 0.503-0.291 0.911-0.056 0.91 0.525 0 0 0 0 0 0-0.001 0.581-0.409 1.289-0.912 1.58 0 0 0 0 0 0-0.503 0.291-0.911 0.056-0.91-0.525 0 0 0 0 0 0z"
     id="path48" />
  <path
     fill="rgb(64, 64, 64)"
     d="M12.341 25.081c0.001-0.581 0.409-1.289 0.912-1.58s0.911-0.056 0.91 0.525c-0.001 0.581-0.409 1.289-0.912 1.58s-0.911 0.056-0.91-0.525z"
     id="path50" />
</svg>
