<?xml version="1.0" encoding="UTF-8" standalone="no"?>
<!-- Created with Inkscape (http://www.inkscape.org/) -->

<svg
   xmlns:dc="http://purl.org/dc/elements/1.1/"
   xmlns:cc="http://creativecommons.org/ns#"
   xmlns:rdf="http://www.w3.org/1999/02/22-rdf-syntax-ns#"
   xmlns:svg="http://www.w3.org/2000/svg"
   xmlns="http://www.w3.org/2000/svg"
   xmlns:sodipodi="http://sodipodi.sourceforge.net/DTD/sodipodi-0.dtd"
   xmlns:inkscape="http://www.inkscape.org/namespaces/inkscape"
   width="69.171455mm"
   height="41.605373mm"
   viewBox="0 0 245.09571 147.42061"
   id="svg4237"
   version="1.1"
   inkscape:version="0.91 r13725"
   sodipodi:docname="text-logo-path.svg">
  <defs
     id="defs4239" />
  <sodipodi:namedview
     id="base"
     pagecolor="#ffffff"
     bordercolor="#666666"
     borderopacity="1.0"
     inkscape:pageopacity="0.0"
     inkscape:pageshadow="2"
     inkscape:zoom="0.35"
     inkscape:cx="-50.119978"
     inkscape:cy="-363.04462"
     inkscape:document-units="px"
     inkscape:current-layer="layer1"
     showgrid="false"
     inkscape:snap-page="true"
     inkscape:snap-grids="false"
     inkscape:window-width="1920"
     inkscape:window-height="1027"
     inkscape:window-x="-8"
     inkscape:window-y="-8"
     inkscape:window-maximized="1"
     fit-margin-top="0"
     fit-margin-left="0"
     fit-margin-right="0"
     fit-margin-bottom="0" />
  <metadata
     id="metadata4242">
    <rdf:RDF>
      <cc:Work
         rdf:about="">
        <dc:format>image/svg+xml</dc:format>
        <dc:type
           rdf:resource="http://purl.org/dc/dcmitype/StillImage" />
        <dc:title></dc:title>
      </cc:Work>
    </rdf:RDF>
  </metadata>
  <g
     inkscape:label="Layer 1"
     inkscape:groupmode="layer"
     id="layer1"
     transform="translate(-3.6914063,-21.896975)">
    <flowRoot
       xml:space="preserve"
       id="flowRoot4253"
       style="font-style:normal;font-weight:normal;font-size:40px;line-height:125%;font-family:sans-serif;letter-spacing:0px;word-spacing:0px;fill:#000000;fill-opacity:1;stroke:none;stroke-width:1px;stroke-linecap:butt;stroke-linejoin:miter;stroke-opacity:1"><flowRegion
         id="flowRegion4255"><rect
           id="rect4257"
           width="357.14285"
           height="131.42857"
           x="148.57143"
           y="335.21936" /></flowRegion><flowPara
         id="flowPara4259" /></flowRoot>    <flowRoot
       xml:space="preserve"
       id="flowRoot4269"
       style="font-style:normal;font-weight:normal;font-size:40px;line-height:125%;font-family:sans-serif;letter-spacing:0px;word-spacing:0px;fill:#000000;fill-opacity:1;stroke:none;stroke-width:1px;stroke-linecap:butt;stroke-linejoin:miter;stroke-opacity:1"><flowRegion
         id="flowRegion4271"><rect
           id="rect4273"
           width="245.71428"
           height="60"
           x="51.42857"
           y="358.07648" /></flowRegion><flowPara
         id="flowPara4275" /></flowRoot>    <flowRoot
       xml:space="preserve"
       id="flowRoot4277"
       style="font-style:normal;font-weight:normal;font-size:40px;line-height:125%;font-family:sans-serif;letter-spacing:0px;word-spacing:0px;fill:#000000;fill-opacity:1;stroke:none;stroke-width:1px;stroke-linecap:butt;stroke-linejoin:miter;stroke-opacity:1"><flowRegion
         id="flowRegion4279"><rect
           id="rect4281"
           width="231.42857"
           height="151.42857"
           x="131.42857"
           y="369.50507" /></flowRegion><flowPara
         id="flowPara4283" /></flowRoot>    <flowRoot
       xml:space="preserve"
       id="flowRoot4285"
       style="font-style:normal;font-weight:normal;font-size:40px;line-height:125%;font-family:sans-serif;letter-spacing:0px;word-spacing:0px;fill:#000000;fill-opacity:1;stroke:none;stroke-width:1px;stroke-linecap:butt;stroke-linejoin:miter;stroke-opacity:1"><flowRegion
         id="flowRegion4287"><rect
           id="rect4289"
           width="180"
           height="42.857143"
           x="117.14286"
           y="375.21936" /></flowRegion><flowPara
         id="flowPara4291" /></flowRoot>    <flowRoot
       xml:space="preserve"
       id="flowRoot4293"
       style="font-style:normal;font-weight:normal;font-size:40px;line-height:125%;font-family:sans-serif;letter-spacing:0px;word-spacing:0px;fill:#000000;fill-opacity:1;stroke:none;stroke-width:1px;stroke-linecap:butt;stroke-linejoin:miter;stroke-opacity:1"><flowRegion
         id="flowRegion4295"><rect
           id="rect4297"
           width="268.57144"
           height="120"
           x="-22.857143"
           y="155.21935" /></flowRegion><flowPara
         id="flowPara4299" /></flowRoot>    <flowRoot
       xml:space="preserve"
       id="flowRoot4301"
       style="font-style:normal;font-variant:normal;font-weight:normal;font-stretch:condensed;font-size:90px;line-height:125%;font-family:Impact;-inkscape-font-specification:'Impact Condensed';letter-spacing:0px;word-spacing:0px;fill:#000000;fill-opacity:1;stroke:none;stroke-width:1px;stroke-linecap:butt;stroke-linejoin:miter;stroke-opacity:1"><flowRegion
         id="flowRegion4303"><rect
           id="rect4305"
           width="440"
           height="158.07649"
           x="0"
           y="0"
           style="font-style:normal;font-variant:normal;font-weight:normal;font-stretch:condensed;font-size:90px;font-family:Impact;-inkscape-font-specification:'Impact Condensed'" /></flowRegion><flowPara
         id="flowPara4307" /></flowRoot>    <g
       style="font-style:normal;font-weight:normal;font-size:40px;line-height:125%;font-family:sans-serif;letter-spacing:0px;word-spacing:0px;fill:#000000;fill-opacity:1;stroke:none;stroke-width:1px;stroke-linecap:butt;stroke-linejoin:miter;stroke-opacity:1"
       id="flowRoot4309">
      <path
         d="m 3.6914063,21.896975 13.8427737,0 q 13.40332,0 18.105468,1.230468 4.746094,1.230469 7.207032,4.042969 2.460937,2.8125 3.076172,6.28418 0.615234,3.427734 0.615234,13.535156 l 0,24.916992 q 0,9.580078 -0.922852,12.832031 -0.878906,3.208008 -3.120117,5.053711 -2.241211,1.801758 -5.537109,2.548829 -3.295899,0.703125 -9.931641,0.703125 l -23.3349607,0 0,-71.147461 z m 18.5009767,12.172851 0,46.801758 q 3.999023,0 4.921875,-1.582031 0.922851,-1.625977 0.922851,-8.745117 l 0,-27.641602 q 0,-4.833984 -0.307617,-6.196289 -0.307617,-1.362305 -1.40625,-1.977539 -1.098633,-0.65918 -4.130859,-0.65918 z"
         style="font-style:normal;font-variant:normal;font-weight:normal;font-stretch:condensed;font-size:90px;font-family:Impact;-inkscape-font-specification:'Impact Condensed'"
         id="path4760"
         inkscape:connector-curvature="0" />
      <path
         d="m 71.191406,21.896975 0,9.272461 -18.28125,0 0,-9.272461 18.28125,0 z m 0,12.832031 0,58.31543 -18.28125,0 0,-58.31543 18.28125,0 z"
         style="font-style:normal;font-variant:normal;font-weight:normal;font-stretch:condensed;font-size:90px;font-family:Impact;-inkscape-font-specification:'Impact Condensed'"
         id="path4762"
         inkscape:connector-curvature="0" />
      <path
         d="m 116.7627,56.745607 -16.74317,0 0,-6.723632 q 0,-3.515625 -0.571288,-4.746094 -0.571289,-1.274414 -2.109375,-1.274414 -1.538086,0 -2.06543,1.098633 -0.527343,1.098632 -0.527343,4.921875 l 0,27.509765 q 0,3.120117 0.791015,4.702149 0.791016,1.538086 2.329102,1.538086 1.801758,0 2.416989,-1.625977 0.65918,-1.625977 0.65918,-6.152344 l 0,-6.943359 15.82032,0 q -0.0439,6.987305 -0.52735,10.50293 -0.43945,3.471679 -2.94433,7.163086 -2.46094,3.64746 -6.45997,5.537109 -3.99902,1.845703 -9.887691,1.845703 -7.514648,0 -11.909179,-2.548828 -4.394532,-2.592774 -6.240235,-7.207031 -1.801758,-4.658203 -1.801758,-13.183594 l 0,-16.567383 q 0,-7.426758 1.494141,-11.206055 1.494141,-3.779296 6.37207,-6.723632 4.87793,-2.988282 11.865235,-2.988282 6.943357,0 11.865237,2.944336 4.92187,2.944336 6.54785,7.426758 1.62598,4.482422 1.62598,12.700195 z"
         style="font-style:normal;font-variant:normal;font-weight:normal;font-stretch:condensed;font-size:90px;font-family:Impact;-inkscape-font-specification:'Impact Condensed'"
         id="path4764"
         inkscape:connector-curvature="0" />
      <path
         d="m 162.20215,64.919436 -22.9834,0 0,12.612304 q 0,3.955078 0.57129,5.097656 0.57129,1.142579 2.19726,1.142579 2.02149,0 2.68067,-1.494141 0.70312,-1.538086 0.70312,-5.888672 l 0,-7.69043 16.83106,0 0,4.306641 q 0,5.405273 -0.70313,8.305664 -0.65918,2.900391 -3.16406,6.196289 -2.50488,3.295899 -6.37207,4.96582 -3.82324,1.625977 -9.62402,1.625977 -5.625,0 -9.93164,-1.625977 -4.30664,-1.625976 -6.72364,-4.438476 -2.37304,-2.856445 -3.29589,-6.240234 -0.92286,-3.427735 -0.92286,-9.931641 l 0,-17.006836 q 0,-7.646484 2.06543,-12.041016 2.06543,-4.438476 6.76758,-6.767578 4.70215,-2.373047 10.81055,-2.373047 7.4707,0 12.30469,2.856446 4.87793,2.8125 6.81152,7.514648 1.97754,4.658203 1.97754,13.139649 l 0,7.734375 z m -17.79785,-9.492188 0,-4.262695 q 0,-4.526367 -0.4834,-5.844727 -0.4834,-1.318359 -1.97754,-1.318359 -1.8457,0 -2.28516,1.142578 -0.43945,1.098633 -0.43945,6.020508 l 0,4.262695 5.18555,0 z"
         style="font-style:normal;font-variant:normal;font-weight:normal;font-stretch:condensed;font-size:90px;font-family:Impact;-inkscape-font-specification:'Impact Condensed'"
         id="path4766"
         inkscape:connector-curvature="0" />
    </g>
    <g
       transform="translate(-20,-117.14286)"
       style="font-style:normal;font-weight:normal;font-size:40px;line-height:125%;font-family:sans-serif;letter-spacing:0px;word-spacing:0px;fill:#000000;fill-opacity:1;stroke:none;stroke-width:1px;stroke-linecap:butt;stroke-linejoin:miter;stroke-opacity:1"
       id="flowRoot4317">
      <path
         d="m 72.263672,214.2583 13.842773,0 q 13.403321,0 18.105465,1.23047 4.7461,1.23047 7.20704,4.04297 2.46093,2.8125 3.07617,6.28418 0.61523,3.42773 0.61523,13.53516 l 0,24.91699 q 0,9.58008 -0.92285,12.83203 -0.87891,3.20801 -3.12012,5.05371 -2.24121,1.80176 -5.53711,2.54883 -3.29589,0.70312 -9.931637,0.70312 l -23.334961,0 0,-71.14746 z m 18.500976,12.17285 0,46.80176 q 3.999024,0 4.921875,-1.58203 0.922852,-1.62598 0.922852,-8.74512 l 0,-27.6416 q 0,-4.83398 -0.307617,-6.19629 -0.307617,-1.3623 -1.40625,-1.97754 -1.098633,-0.65918 -4.13086,-0.65918 z"
         style="font-style:normal;font-variant:normal;font-weight:normal;font-stretch:condensed;font-size:90px;font-family:Impact;-inkscape-font-specification:'Impact Condensed'"
         id="path4751"
         inkscape:connector-curvature="0" />
      <path
         d="m 161.64844,247.56885 0,14.28223 q 0,7.86621 -0.79102,11.55761 -0.79101,3.64746 -3.38379,6.85547 -2.59277,3.16406 -6.67968,4.70215 -4.04297,1.49414 -9.31641,1.49414 -5.88867,0 -9.97559,-1.27441 -4.08691,-1.31836 -6.37207,-3.91114 -2.24121,-2.63671 -3.208,-6.32812 -0.9668,-3.73535 -0.9668,-11.16211 l 0,-14.94141 q 0,-8.12988 1.75781,-12.70019 1.75781,-4.57031 6.32813,-7.33887 4.57031,-2.76855 11.68945,-2.76855 5.97656,0 10.23926,1.80175 4.30664,1.75782 6.63574,4.61426 2.3291,2.85645 3.16406,5.88867 0.87891,3.03223 0.87891,9.22852 z m -17.75391,-4.39453 q 0,-4.48242 -0.4834,-5.625 -0.4834,-1.18653 -2.06543,-1.18653 -1.58203,0 -2.10937,1.18653 -0.52735,1.14258 -0.52735,5.625 l 0,26.32324 q 0,4.13086 0.52735,5.40527 0.52734,1.23047 2.06543,1.23047 1.58203,0 2.06543,-1.14258 0.52734,-1.14257 0.52734,-4.92187 l 0,-26.89453 z"
         style="font-style:normal;font-variant:normal;font-weight:normal;font-stretch:condensed;font-size:90px;font-family:Impact;-inkscape-font-specification:'Impact Condensed'"
         id="path4753"
         inkscape:connector-curvature="0" />
      <path
         d="m 224.88574,227.09033 -7.07519,58.31543 -19.292,0 q -1.58203,-10.67871 -3.64746,-28.125 -0.70312,7.64649 -1.97754,15.46875 l -1.97753,12.65625 -19.292,0 -7.51465,-58.31543 15.29297,0 q 0.17578,2.28516 3.86719,33.3545 0.26367,-3.16407 3.95508,-33.3545 l 14.72168,0 3.60351,33.3545 q 0.83497,-14.58985 4.04297,-33.3545 l 15.29297,0 z"
         style="font-style:normal;font-variant:normal;font-weight:normal;font-stretch:condensed;font-size:90px;font-family:Impact;-inkscape-font-specification:'Impact Condensed'"
         id="path4755"
         inkscape:connector-curvature="0" />
      <path
         d="m 245.8916,227.09033 -0.30762,5.36133 q 1.9336,-3.20801 4.70215,-4.79004 2.8125,-1.62597 6.45996,-1.62597 4.57032,0 7.47071,2.15332 2.90039,2.15332 3.73535,5.44922 0.83496,3.25195 0.83496,10.89843 l 0,40.86914 -17.75391,0 0,-40.38574 q 0,-6.02051 -0.3955,-7.33887 -0.39551,-1.31836 -2.19727,-1.31836 -1.88965,0 -2.37305,1.53809 -0.4834,1.49414 -0.4834,8.08594 l 0,39.41894 -17.7539,0 0,-58.31543 18.06152,0 z"
         style="font-style:normal;font-variant:normal;font-weight:normal;font-stretch:condensed;font-size:90px;font-family:Impact;-inkscape-font-specification:'Impact Condensed'"
         id="path4757"
         inkscape:connector-curvature="0" />
    </g>
  </g>
</svg>
